<?xml version="1.0" encoding="utf-8"?>
<!-- Generator: Adobe Illustrator 16.0.0, SVG Export Plug-In . SVG Version: 6.00 Build 0)  -->
<!DOCTYPE svg PUBLIC "-//W3C//DTD SVG 1.1//EN" "http://www.w3.org/Graphics/SVG/1.1/DTD/svg11.dtd">
<svg version="1.1" id="Layer_1" xmlns="http://www.w3.org/2000/svg" xmlns:xlink="http://www.w3.org/1999/xlink" x="0px" y="0px"
	 width="864px" height="864px" viewBox="0 0 864 864" enable-background="new 0 0 864 864" xml:space="preserve">
<path fill-rule="evenodd" clip-rule="evenodd" fill="#FFF200" d="M90.989,461.883C82.511,234.574,256.436,98.097,439.545,99.767
	c201.869,1.841,347.88,152.844,345.055,336.626c-3.097,201.367-145.221,356.497-347.872,354.887
	C229.374,789.634,106.738,634.723,90.989,461.883z"/>
<g>
	<path fill-rule="evenodd" clip-rule="evenodd" fill="#603913" d="M511.02,246.76c12.665-28.45,35.976-28.843,48.699-1.152
		c25.152,54.739,26.394,111.459,1.486,166.608c-13.429,29.734-35.996,29.785-50.428,0.848
		C490.771,372.946,485.952,303.067,511.02,246.76z"/>
	<path fill-rule="evenodd" clip-rule="evenodd" fill="#603913" d="M307.02,246.76c12.665-28.45,35.976-28.843,48.699-1.152
		c25.152,54.739,26.394,111.459,1.486,166.608c-13.429,29.734-35.996,29.785-50.428,0.848
		C286.771,372.946,281.952,303.067,307.02,246.76z"/>
	<path fill-rule="evenodd" clip-rule="evenodd" fill="#603913" d="M430.325,725.78c-123.123-4.038-222.484-87.362-243.654-204.324
		c-6.218-34.358,3.314-43.368,37.513-34.02c140.925,38.525,281.767,38.431,422.724,0.211c35.005-9.493,44.378-0.071,37.344,36.484
		C661.295,643.435,552.554,729.789,430.325,725.78z"/>
</g>
<path fill-rule="evenodd" clip-rule="evenodd" fill="#FFFFFF" d="M223.687,526.796c7.657,0.539,15.398,0.36,22.858,1.721
	c123.922,22.561,247.85,22.396,371.998,1.528c10.077-1.694,20.421-3.828,32.469-5.032c0,18.072-2.409,36.145-22.247,45.259
	c-18.949,8.706-39.849,15.483-60.673,20.146c-105.359,23.598-209.801,20.583-312.664-13.749
	C226.525,567.023,221.964,559.576,223.687,526.796z"/>
</svg>
